<svg xmlns="http://www.w3.org/2000/svg" xmlns:xlink="http://www.w3.org/1999/xlink" width="2000" zoomAndPan="magnify" viewBox="0 0 1500 1499.999933" height="2000" preserveAspectRatio="xMidYMid meet" version="1.0"><defs><g/><clipPath id="35cc9b2a10"><path d="M 182.765625 515.117188 L 527.636719 515.117188 L 527.636719 859.988281 L 182.765625 859.988281 Z M 182.765625 515.117188 " clip-rule="nonzero"/></clipPath><clipPath id="2f7a3ab2ac"><path d="M 355.199219 515.117188 C 259.964844 515.117188 182.765625 592.320312 182.765625 687.554688 C 182.765625 782.789062 259.964844 859.988281 355.199219 859.988281 C 450.433594 859.988281 527.636719 782.789062 527.636719 687.554688 C 527.636719 592.320312 450.433594 515.117188 355.199219 515.117188 Z M 355.199219 515.117188 " clip-rule="nonzero"/></clipPath><clipPath id="2a7872c777"><path d="M 313.15625 658.515625 L 362.441406 658.515625 L 362.441406 707.800781 L 313.15625 707.800781 Z M 313.15625 658.515625 " clip-rule="nonzero"/></clipPath><clipPath id="e87754e9e5"><path d="M 337.800781 658.515625 C 324.191406 658.515625 313.15625 669.546875 313.15625 683.15625 C 313.15625 696.769531 324.191406 707.800781 337.800781 707.800781 C 351.410156 707.800781 362.441406 696.769531 362.441406 683.15625 C 362.441406 669.546875 351.410156 658.515625 337.800781 658.515625 Z M 337.800781 658.515625 " clip-rule="nonzero"/></clipPath><clipPath id="7833d62a19"><path d="M 0.15625 0.515625 L 49.441406 0.515625 L 49.441406 49.800781 L 0.15625 49.800781 Z M 0.15625 0.515625 " clip-rule="nonzero"/></clipPath><clipPath id="e201983f58"><path d="M 24.800781 0.515625 C 11.191406 0.515625 0.15625 11.546875 0.15625 25.15625 C 0.15625 38.769531 11.191406 49.800781 24.800781 49.800781 C 38.410156 49.800781 49.441406 38.769531 49.441406 25.15625 C 49.441406 11.546875 38.410156 0.515625 24.800781 0.515625 Z M 24.800781 0.515625 " clip-rule="nonzero"/></clipPath><clipPath id="91d4d25ef4"><rect x="0" width="50" y="0" height="50"/></clipPath><clipPath id="56ad06a0f4"><path d="M 313.15625 658.515625 L 362.433594 658.515625 L 362.433594 707.792969 L 313.15625 707.792969 Z M 313.15625 658.515625 " clip-rule="nonzero"/></clipPath><clipPath id="3b3f8da2d0"><path d="M 337.796875 658.515625 C 324.1875 658.515625 313.15625 669.546875 313.15625 683.152344 C 313.15625 696.761719 324.1875 707.792969 337.796875 707.792969 C 351.402344 707.792969 362.433594 696.761719 362.433594 683.152344 C 362.433594 669.546875 351.402344 658.515625 337.796875 658.515625 Z M 337.796875 658.515625 " clip-rule="nonzero"/></clipPath><clipPath id="1d646f6b86"><rect x="0" width="591" y="0" height="219"/></clipPath><clipPath id="470e1b8114"><rect x="0" width="577" y="0" height="88"/></clipPath></defs><g clip-path="url(#35cc9b2a10)"><g clip-path="url(#2f7a3ab2ac)"><path stroke-linecap="butt" transform="matrix(0.75, 0, 0, 0.75, 182.763812, 515.11892)" fill="none" stroke-linejoin="miter" d="M 229.91391 -0.00230951 C 102.934724 -0.00230951 0.00241732 102.935206 0.00241732 229.914392 C 0.00241732 356.893577 102.934724 459.825885 229.91391 459.825885 C 356.893096 459.825885 459.830611 356.893577 459.830611 229.914392 C 459.830611 102.935206 356.893096 -0.00230951 229.91391 -0.00230951 Z M 229.91391 -0.00230951 " stroke="#009CFF" stroke-width="10" stroke-opacity="1" stroke-miterlimit="4"/></g></g><path stroke-linecap="butt" transform="matrix(0.75, 0, 0, 0.75, 182.763812, 676.78293)" fill="none" stroke-linejoin="miter" d="M 0.00241732 8.497761 L 189.320142 8.497761 " stroke="#009CFF" stroke-width="17" stroke-opacity="1" stroke-miterlimit="4"/><path stroke-linecap="butt" transform="matrix(0.747389, -0.0625233, 0.0625233, 0.747389, 337.54972, 680.168297)" fill="none" stroke-linejoin="miter" d="M 0.001464 3.997975 L 222.437072 3.999539 " stroke="#009CFF" stroke-width="8" stroke-opacity="1" stroke-miterlimit="4"/><path stroke-linecap="round" transform="matrix(0.747389, -0.0625233, 0.0625233, 0.747389, 337.54972, 680.168297)" fill-opacity="1" fill="#009CFF" fill-rule="nonzero" stroke-linejoin="round" d="M 248.43896 4.000509 C 248.438569 10.627711 243.065709 16.000592 236.438506 16.000201 C 229.811303 15.999809 224.438423 10.62695 224.438814 3.999747 C 224.439206 -2.627456 229.812065 -8.000336 236.439268 -7.999945 C 243.066471 -7.999554 248.439351 -2.626694 248.43896 4.000509 " stroke="#009CFF" stroke-width="8" stroke-opacity="1" stroke-miterlimit="4"/><g clip-path="url(#2a7872c777)"><g clip-path="url(#e87754e9e5)"><g transform="matrix(1, 0, 0, 1, 313, 658)"><g clip-path="url(#91d4d25ef4)"><g clip-path="url(#7833d62a19)"><g clip-path="url(#e201983f58)"><path fill="#009CFF" d="M 0.15625 0.515625 L 49.441406 0.515625 L 49.441406 49.800781 L 0.15625 49.800781 Z M 0.15625 0.515625 " fill-opacity="1" fill-rule="nonzero"/></g></g></g></g></g></g><g clip-path="url(#56ad06a0f4)"><g clip-path="url(#3b3f8da2d0)"><path stroke-linecap="butt" transform="matrix(0.75, 0, 0, 0.75, 313.157291, 658.515403)" fill="none" stroke-linejoin="miter" d="M 32.852781 0.000295627 C 14.706946 0.000295627 -0.00138824 14.70863 -0.00138824 32.849257 C -0.00138824 50.995092 14.706946 65.703426 32.852781 65.703426 C 50.993408 65.703426 65.701742 50.995092 65.701742 32.849257 C 65.701742 14.70863 50.993408 0.000295627 32.852781 0.000295627 Z M 32.852781 0.000295627 " stroke="#009CFF" stroke-width="8" stroke-opacity="1" stroke-miterlimit="4"/></g></g><path stroke-linecap="butt" transform="matrix(0.716677, 0.221074, -0.221074, 0.716677, 343.461654, 681.317969)" fill="none" stroke-linejoin="miter" d="M 0.000551589 3.998317 L 217.383297 3.999563 " stroke="#009CFF" stroke-width="8" stroke-opacity="1" stroke-miterlimit="4"/><path stroke-linecap="round" transform="matrix(0.716677, 0.221074, -0.221074, 0.716677, 343.461654, 681.317969)" fill-opacity="1" fill="#009CFF" fill-rule="nonzero" stroke-linejoin="round" d="M 243.388078 4.00098 C 243.38858 10.628636 238.013843 15.998378 231.386187 15.998879 C 224.758532 15.999381 219.383812 10.626179 219.383311 3.998523 C 219.382809 -2.629132 224.757547 -7.998875 231.385202 -7.999376 C 238.012858 -7.999877 243.387577 -2.626675 243.388078 4.00098 " stroke="#009CFF" stroke-width="8" stroke-opacity="1" stroke-miterlimit="4"/><path stroke-linecap="butt" transform="matrix(0.607176, 0.44027, -0.44027, 0.607176, 342.723198, 682.336385)" fill="none" stroke-linejoin="miter" d="M -0.000854573 4.001504 L 217.339932 3.99968 " stroke="#009CFF" stroke-width="8" stroke-opacity="1" stroke-miterlimit="4"/><path stroke-linecap="round" transform="matrix(0.607176, 0.44027, -0.44027, 0.607176, 342.723198, 682.336385)" fill-opacity="1" fill="#009CFF" fill-rule="nonzero" stroke-linejoin="round" d="M 243.337074 3.998944 C 243.336503 10.625838 237.963737 16.00139 231.336843 16.000819 C 224.709949 16.000248 219.338614 10.624425 219.339185 3.997531 C 219.339756 -2.629363 224.711362 -7.997641 231.338256 -7.99707 C 237.96515 -7.996499 243.337645 -2.62795 243.337074 3.998944 " stroke="#009CFF" stroke-width="8" stroke-opacity="1" stroke-miterlimit="4"/><path stroke-linecap="butt" transform="matrix(0.697547, -0.27555, 0.27555, 0.697547, 327.592037, 679.486385)" fill="none" stroke-linejoin="miter" d="M 0.00095462 4.001481 L 229.421921 3.999015 " stroke="#009CFF" stroke-width="8" stroke-opacity="1" stroke-miterlimit="4"/><path stroke-linecap="round" transform="matrix(0.697547, -0.27555, 0.27555, 0.697547, 327.592037, 679.486385)" fill-opacity="1" fill="#009CFF" fill-rule="nonzero" stroke-linejoin="round" d="M 255.422413 3.999563 C 255.41896 10.628576 250.049073 16.000096 243.418147 16.001488 C 236.793978 15.999949 231.422458 10.630062 231.421066 3.999135 C 231.422605 -2.625034 236.794406 -8.001398 243.418574 -7.999859 C 250.049501 -8.001251 255.419107 -2.626519 255.422413 3.999563 " stroke="#009CFF" stroke-width="8" stroke-opacity="1" stroke-miterlimit="4"/><g transform="matrix(1, 0, 0, 1, 623, 542)"><g clip-path="url(#1d646f6b86)"><g fill="#009CFF" fill-opacity="1"><g transform="translate(2.468617, 171.399599)"><g><path d="M 68.9375 -125.015625 C 80.007812 -125.015625 89.625 -123.164062 97.78125 -119.46875 C 105.9375 -115.78125 112.21875 -110.539062 116.625 -103.75 C 121.03125 -96.96875 123.234375 -88.9375 123.234375 -79.65625 C 123.234375 -70.488281 121.03125 -62.476562 116.625 -55.625 C 112.21875 -48.78125 105.9375 -43.539062 97.78125 -39.90625 C 89.625 -36.28125 80.007812 -34.46875 68.9375 -34.46875 L 43.75 -34.46875 L 43.75 0 L 14.828125 0 L 14.828125 -125.015625 Z M 67.328125 -58.046875 C 76.015625 -58.046875 82.617188 -59.921875 87.140625 -63.671875 C 91.671875 -67.421875 93.9375 -72.75 93.9375 -79.65625 C 93.9375 -86.675781 91.671875 -92.0625 87.140625 -95.8125 C 82.617188 -99.5625 76.015625 -101.4375 67.328125 -101.4375 L 43.75 -101.4375 L 43.75 -58.046875 Z M 67.328125 -58.046875 "/></g></g></g><g fill="#009CFF" fill-opacity="1"><g transform="translate(133.197025, 171.399599)"><g/></g></g><g fill="#009CFF" fill-opacity="1"><g transform="translate(183.738182, 171.399599)"><g><path d="M 94.46875 0 L 70.359375 -34.828125 L 43.75 -34.828125 L 43.75 0 L 14.828125 0 L 14.828125 -125.015625 L 68.9375 -125.015625 C 80.007812 -125.015625 89.625 -123.164062 97.78125 -119.46875 C 105.9375 -115.78125 112.21875 -110.539062 116.625 -103.75 C 121.03125 -96.96875 123.234375 -88.9375 123.234375 -79.65625 C 123.234375 -70.363281 121 -62.351562 116.53125 -55.625 C 112.0625 -48.90625 105.722656 -43.757812 97.515625 -40.1875 L 125.546875 0 Z M 93.9375 -79.65625 C 93.9375 -86.675781 91.671875 -92.0625 87.140625 -95.8125 C 82.617188 -99.5625 76.015625 -101.4375 67.328125 -101.4375 L 43.75 -101.4375 L 43.75 -57.859375 L 67.328125 -57.859375 C 76.015625 -57.859375 82.617188 -59.765625 87.140625 -63.578125 C 91.671875 -67.390625 93.9375 -72.75 93.9375 -79.65625 Z M 93.9375 -79.65625 "/></g></g></g><g fill="#009CFF" fill-opacity="1"><g transform="translate(315.002375, 171.399599)"><g/></g></g><g fill="#009CFF" fill-opacity="1"><g transform="translate(365.543532, 171.399599)"><g><path d="M 14.828125 -125.015625 L 43.75 -125.015625 L 43.75 0 L 14.828125 0 Z M 14.828125 -125.015625 "/></g></g></g><g fill="#009CFF" fill-opacity="1"><g transform="translate(424.121282, 171.399599)"><g/></g></g><g fill="#009CFF" fill-opacity="1"><g transform="translate(474.662439, 171.399599)"><g><path d="M 55.90625 2.140625 C 46.019531 2.140625 36.460938 0.800781 27.234375 -1.875 C 18.003906 -4.550781 10.59375 -8.035156 5 -12.328125 L 14.828125 -34.109375 C 20.179688 -30.179688 26.546875 -27.023438 33.921875 -24.640625 C 41.304688 -22.265625 48.691406 -21.078125 56.078125 -21.078125 C 64.296875 -21.078125 70.367188 -22.296875 74.296875 -24.734375 C 78.222656 -27.171875 80.1875 -30.414062 80.1875 -34.46875 C 80.1875 -37.445312 79.023438 -39.914062 76.703125 -41.875 C 74.378906 -43.84375 71.398438 -45.421875 67.765625 -46.609375 C 64.140625 -47.804688 59.234375 -49.117188 53.046875 -50.546875 C 43.515625 -52.804688 35.710938 -55.066406 29.640625 -57.328125 C 23.566406 -59.585938 18.359375 -63.21875 14.015625 -68.21875 C 9.671875 -73.21875 7.5 -79.882812 7.5 -88.21875 C 7.5 -95.488281 9.460938 -102.066406 13.390625 -107.953125 C 17.316406 -113.847656 23.238281 -118.519531 31.15625 -121.96875 C 39.082031 -125.425781 48.757812 -127.15625 60.1875 -127.15625 C 68.164062 -127.15625 75.960938 -126.203125 83.578125 -124.296875 C 91.203125 -122.390625 97.867188 -119.648438 103.578125 -116.078125 L 94.65625 -94.125 C 83.101562 -100.664062 71.550781 -103.9375 60 -103.9375 C 51.90625 -103.9375 45.921875 -102.625 42.046875 -100 C 38.179688 -97.382812 36.25 -93.9375 36.25 -89.65625 C 36.25 -85.363281 38.484375 -82.175781 42.953125 -80.09375 C 47.421875 -78.007812 54.238281 -75.957031 63.40625 -73.9375 C 72.925781 -71.675781 80.722656 -69.414062 86.796875 -67.15625 C 92.867188 -64.894531 98.078125 -61.320312 102.421875 -56.4375 C 106.765625 -51.550781 108.9375 -44.941406 108.9375 -36.609375 C 108.9375 -29.460938 106.941406 -22.941406 102.953125 -17.046875 C 98.960938 -11.160156 92.976562 -6.488281 85 -3.03125 C 77.03125 0.414062 67.332031 2.140625 55.90625 2.140625 Z M 55.90625 2.140625 "/></g></g></g></g></g><g transform="matrix(1, 0, 0, 1, 632, 741)"><g clip-path="url(#470e1b8114)"><g fill="#009CFF" fill-opacity="1"><g transform="translate(2.734904, 67.395209)"><g><path d="M 21.9375 0.421875 C 18.21875 0.421875 14.65625 -0.171875 11.25 -1.359375 C 7.84375 -2.546875 5.210938 -4.117188 3.359375 -6.078125 L 5.421875 -10.140625 C 7.234375 -8.328125 9.640625 -6.863281 12.640625 -5.75 C 15.640625 -4.632812 18.738281 -4.078125 21.9375 -4.078125 C 26.40625 -4.078125 29.757812 -4.894531 32 -6.53125 C 34.238281 -8.175781 35.359375 -10.3125 35.359375 -12.9375 C 35.359375 -14.9375 34.75 -16.53125 33.53125 -17.71875 C 32.320312 -18.90625 30.835938 -19.820312 29.078125 -20.46875 C 27.316406 -21.113281 24.863281 -21.816406 21.71875 -22.578125 C 17.957031 -23.523438 14.957031 -24.4375 12.71875 -25.3125 C 10.476562 -26.195312 8.5625 -27.546875 6.96875 -29.359375 C 5.375 -31.171875 4.578125 -33.625 4.578125 -36.71875 C 4.578125 -39.238281 5.242188 -41.535156 6.578125 -43.609375 C 7.910156 -45.679688 9.957031 -47.335938 12.71875 -48.578125 C 15.476562 -49.816406 18.90625 -50.4375 23 -50.4375 C 25.863281 -50.4375 28.660156 -50.039062 31.390625 -49.25 C 34.128906 -48.46875 36.5 -47.382812 38.5 -46 L 36.71875 -41.796875 C 34.625 -43.171875 32.382812 -44.203125 30 -44.890625 C 27.625 -45.585938 25.289062 -45.9375 23 -45.9375 C 18.625 -45.9375 15.328125 -45.085938 13.109375 -43.390625 C 10.890625 -41.703125 9.78125 -39.523438 9.78125 -36.859375 C 9.78125 -34.859375 10.390625 -33.25 11.609375 -32.03125 C 12.828125 -30.820312 14.351562 -29.894531 16.1875 -29.25 C 18.019531 -28.613281 20.484375 -27.910156 23.578125 -27.140625 C 27.242188 -26.234375 30.207031 -25.335938 32.46875 -24.453125 C 34.726562 -23.578125 36.644531 -22.242188 38.21875 -20.453125 C 39.789062 -18.671875 40.578125 -16.257812 40.578125 -13.21875 C 40.578125 -10.695312 39.894531 -8.398438 38.53125 -6.328125 C 37.175781 -4.253906 35.09375 -2.609375 32.28125 -1.390625 C 29.476562 -0.179688 26.03125 0.421875 21.9375 0.421875 Z M 21.9375 0.421875 "/></g></g></g><g fill="#009CFF" fill-opacity="1"><g transform="translate(52.02022, 67.395209)"><g/></g></g><g fill="#009CFF" fill-opacity="1"><g transform="translate(76.092088, 67.395209)"><g><path d="M 8.140625 -50 L 13.4375 -50 L 13.4375 0 L 8.140625 0 Z M 8.140625 -50 "/></g></g></g><g fill="#009CFF" fill-opacity="1"><g transform="translate(103.020973, 67.395209)"><g/></g></g><g fill="#009CFF" fill-opacity="1"><g transform="translate(127.092841, 67.395209)"><g><path d="M 21.9375 0.421875 C 18.21875 0.421875 14.65625 -0.171875 11.25 -1.359375 C 7.84375 -2.546875 5.210938 -4.117188 3.359375 -6.078125 L 5.421875 -10.140625 C 7.234375 -8.328125 9.640625 -6.863281 12.640625 -5.75 C 15.640625 -4.632812 18.738281 -4.078125 21.9375 -4.078125 C 26.40625 -4.078125 29.757812 -4.894531 32 -6.53125 C 34.238281 -8.175781 35.359375 -10.3125 35.359375 -12.9375 C 35.359375 -14.9375 34.75 -16.53125 33.53125 -17.71875 C 32.320312 -18.90625 30.835938 -19.820312 29.078125 -20.46875 C 27.316406 -21.113281 24.863281 -21.816406 21.71875 -22.578125 C 17.957031 -23.523438 14.957031 -24.4375 12.71875 -25.3125 C 10.476562 -26.195312 8.5625 -27.546875 6.96875 -29.359375 C 5.375 -31.171875 4.578125 -33.625 4.578125 -36.71875 C 4.578125 -39.238281 5.242188 -41.535156 6.578125 -43.609375 C 7.910156 -45.679688 9.957031 -47.335938 12.71875 -48.578125 C 15.476562 -49.816406 18.90625 -50.4375 23 -50.4375 C 25.863281 -50.4375 28.660156 -50.039062 31.390625 -49.25 C 34.128906 -48.46875 36.5 -47.382812 38.5 -46 L 36.71875 -41.796875 C 34.625 -43.171875 32.382812 -44.203125 30 -44.890625 C 27.625 -45.585938 25.289062 -45.9375 23 -45.9375 C 18.625 -45.9375 15.328125 -45.085938 13.109375 -43.390625 C 10.890625 -41.703125 9.78125 -39.523438 9.78125 -36.859375 C 9.78125 -34.859375 10.390625 -33.25 11.609375 -32.03125 C 12.828125 -30.820312 14.351562 -29.894531 16.1875 -29.25 C 18.019531 -28.613281 20.484375 -27.910156 23.578125 -27.140625 C 27.242188 -26.234375 30.207031 -25.335938 32.46875 -24.453125 C 34.726562 -23.578125 36.644531 -22.242188 38.21875 -20.453125 C 39.789062 -18.671875 40.578125 -16.257812 40.578125 -13.21875 C 40.578125 -10.695312 39.894531 -8.398438 38.53125 -6.328125 C 37.175781 -4.253906 35.09375 -2.609375 32.28125 -1.390625 C 29.476562 -0.179688 26.03125 0.421875 21.9375 0.421875 Z M 21.9375 0.421875 "/></g></g></g><g fill="#009CFF" fill-opacity="1"><g transform="translate(176.378157, 67.395209)"><g/></g></g><g fill="#009CFF" fill-opacity="1"><g transform="translate(200.450024, 67.395209)"><g><path d="M 17.859375 -45.4375 L 0.28125 -45.4375 L 0.28125 -50 L 40.71875 -50 L 40.71875 -45.4375 L 23.140625 -45.4375 L 23.140625 0 L 17.859375 0 Z M 17.859375 -45.4375 "/></g></g></g><g fill="#009CFF" fill-opacity="1"><g transform="translate(246.806834, 67.395209)"><g/></g></g><g fill="#009CFF" fill-opacity="1"><g transform="translate(270.878701, 67.395209)"><g><path d="M 43.5 -4.578125 L 43.5 0 L 8.140625 0 L 8.140625 -50 L 42.4375 -50 L 42.4375 -45.4375 L 13.4375 -45.4375 L 13.4375 -27.640625 L 39.296875 -27.640625 L 39.296875 -23.140625 L 13.4375 -23.140625 L 13.4375 -4.578125 Z M 43.5 -4.578125 "/></g></g></g><g fill="#009CFF" fill-opacity="1"><g transform="translate(324.021017, 67.395209)"><g/></g></g><g fill="#009CFF" fill-opacity="1"><g transform="translate(348.092884, 67.395209)"><g><path d="M 60.078125 -50 L 60.078125 0 L 55 0 L 55 -40 L 35.359375 -6.359375 L 32.859375 -6.359375 L 13.21875 -39.796875 L 13.21875 0 L 8.140625 0 L 8.140625 -50 L 12.5 -50 L 34.21875 -12.9375 L 55.71875 -50 Z M 60.078125 -50 "/></g></g></g><g fill="#009CFF" fill-opacity="1"><g transform="translate(421.663104, 67.395209)"><g/></g></g><g fill="#009CFF" fill-opacity="1"><g transform="translate(445.734972, 67.395209)"><g><path d="M 39.5 -13.359375 L 11.640625 -13.359375 L 5.640625 0 L 0.140625 0 L 23 -50 L 28.21875 -50 L 51.078125 0 L 45.5 0 Z M 37.578125 -17.640625 L 25.578125 -44.5 L 13.578125 -17.640625 Z M 37.578125 -17.640625 "/></g></g></g><g fill="#009CFF" fill-opacity="1"><g transform="translate(502.305758, 67.395209)"><g/></g></g><g fill="#009CFF" fill-opacity="1"><g transform="translate(526.377625, 67.395209)"><g><path d="M 21.9375 0.421875 C 18.21875 0.421875 14.65625 -0.171875 11.25 -1.359375 C 7.84375 -2.546875 5.210938 -4.117188 3.359375 -6.078125 L 5.421875 -10.140625 C 7.234375 -8.328125 9.640625 -6.863281 12.640625 -5.75 C 15.640625 -4.632812 18.738281 -4.078125 21.9375 -4.078125 C 26.40625 -4.078125 29.757812 -4.894531 32 -6.53125 C 34.238281 -8.175781 35.359375 -10.3125 35.359375 -12.9375 C 35.359375 -14.9375 34.75 -16.53125 33.53125 -17.71875 C 32.320312 -18.90625 30.835938 -19.820312 29.078125 -20.46875 C 27.316406 -21.113281 24.863281 -21.816406 21.71875 -22.578125 C 17.957031 -23.523438 14.957031 -24.4375 12.71875 -25.3125 C 10.476562 -26.195312 8.5625 -27.546875 6.96875 -29.359375 C 5.375 -31.171875 4.578125 -33.625 4.578125 -36.71875 C 4.578125 -39.238281 5.242188 -41.535156 6.578125 -43.609375 C 7.910156 -45.679688 9.957031 -47.335938 12.71875 -48.578125 C 15.476562 -49.816406 18.90625 -50.4375 23 -50.4375 C 25.863281 -50.4375 28.660156 -50.039062 31.390625 -49.25 C 34.128906 -48.46875 36.5 -47.382812 38.5 -46 L 36.71875 -41.796875 C 34.625 -43.171875 32.382812 -44.203125 30 -44.890625 C 27.625 -45.585938 25.289062 -45.9375 23 -45.9375 C 18.625 -45.9375 15.328125 -45.085938 13.109375 -43.390625 C 10.890625 -41.703125 9.78125 -39.523438 9.78125 -36.859375 C 9.78125 -34.859375 10.390625 -33.25 11.609375 -32.03125 C 12.828125 -30.820312 14.351562 -29.894531 16.1875 -29.25 C 18.019531 -28.613281 20.484375 -27.910156 23.578125 -27.140625 C 27.242188 -26.234375 30.207031 -25.335938 32.46875 -24.453125 C 34.726562 -23.578125 36.644531 -22.242188 38.21875 -20.453125 C 39.789062 -18.671875 40.578125 -16.257812 40.578125 -13.21875 C 40.578125 -10.695312 39.894531 -8.398438 38.53125 -6.328125 C 37.175781 -4.253906 35.09375 -2.609375 32.28125 -1.390625 C 29.476562 -0.179688 26.03125 0.421875 21.9375 0.421875 Z M 21.9375 0.421875 "/></g></g></g></g></g></svg>