<svg xmlns="http://www.w3.org/2000/svg" xmlns:xlink="http://www.w3.org/1999/xlink" width="2000" zoomAndPan="magnify" viewBox="-30 350 1250 630" height="2000" preserveAspectRatio="xMidYMid meet" version="1.0"><defs><g/><clipPath id="c969190ede"><path d="M 47.402344 47.171875 L 420.152344 47.171875 L 420.152344 419.917969 L 47.402344 419.917969 Z M 47.402344 47.171875 " clip-rule="nonzero"/></clipPath><clipPath id="a15eab528f"><path d="M 233.777344 47.171875 C 130.84375 47.171875 47.402344 130.613281 47.402344 233.542969 C 47.402344 336.476562 130.84375 419.917969 233.777344 419.917969 C 336.707031 419.917969 420.152344 336.476562 420.152344 233.542969 C 420.152344 130.613281 336.707031 47.171875 233.777344 47.171875 Z M 233.777344 47.171875 " clip-rule="nonzero"/></clipPath><clipPath id="2d095dd989"><path d="M 0.402344 0.171875 L 373.152344 0.171875 L 373.152344 372.917969 L 0.402344 372.917969 Z M 0.402344 0.171875 " clip-rule="nonzero"/></clipPath><clipPath id="4e0e0006d1"><path d="M 186.777344 0.171875 C 83.84375 0.171875 0.402344 83.613281 0.402344 186.542969 C 0.402344 289.476562 83.84375 372.917969 186.777344 372.917969 C 289.707031 372.917969 373.152344 289.476562 373.152344 186.542969 C 373.152344 83.613281 289.707031 0.171875 186.777344 0.171875 Z M 186.777344 0.171875 " clip-rule="nonzero"/></clipPath><clipPath id="6db47ac430"><rect x="0" width="374" y="0" height="373"/></clipPath><clipPath id="d974a24835"><path d="M 47.402344 47.171875 L 418.867188 47.171875 L 418.867188 418.632812 L 47.402344 418.632812 Z M 47.402344 47.171875 " clip-rule="nonzero"/></clipPath><clipPath id="9161b71cdf"><path d="M 233.757812 47.171875 C 130.835938 47.171875 47.402344 130.601562 47.402344 233.523438 C 47.402344 336.445312 130.835938 419.875 233.757812 419.875 C 336.675781 419.875 420.109375 336.445312 420.109375 233.523438 C 420.109375 130.601562 336.675781 47.171875 233.757812 47.171875 Z M 233.757812 47.171875 " clip-rule="nonzero"/></clipPath><clipPath id="6e45f7eaf1"><path d="M 211 42 L 517 42 L 517 477.441406 L 211 477.441406 Z M 211 42 " clip-rule="nonzero"/></clipPath><clipPath id="65ed916a4b"><path d="M 641.449219 294.105469 L 410.164062 477.246094 L 210.570312 225.179688 L 441.855469 42.039062 Z M 641.449219 294.105469 " clip-rule="nonzero"/></clipPath><clipPath id="796eac01ee"><path d="M 442.386719 42.710938 C 494.8125 108.917969 521.402344 193.191406 515.402344 274.113281 C 509.402344 355.035156 471.074219 429.011719 410.164062 477.246094 L 211.101562 225.851562 Z M 442.386719 42.710938 " clip-rule="nonzero"/></clipPath><clipPath id="9ba7f6b78a"><path d="M 0.0390625 0.558594 L 306 0.558594 L 306 435.441406 L 0.0390625 435.441406 Z M 0.0390625 0.558594 " clip-rule="nonzero"/></clipPath><clipPath id="c708040ed5"><path d="M 430.449219 252.105469 L 199.164062 435.246094 L -0.429688 183.179688 L 230.855469 0.0390625 Z M 430.449219 252.105469 " clip-rule="nonzero"/></clipPath><clipPath id="f84d4a933c"><path d="M 231.386719 0.710938 C 283.8125 66.917969 310.402344 151.191406 304.402344 232.113281 C 298.402344 313.035156 260.074219 387.011719 199.164062 435.246094 L 0.101562 183.851562 Z M 231.386719 0.710938 " clip-rule="nonzero"/></clipPath><clipPath id="e1206db879"><rect x="0" width="306" y="0" height="436"/></clipPath><clipPath id="ae735549c6"><path d="M 257 115 L 396 115 L 396 310 L 257 310 Z M 257 115 " clip-rule="nonzero"/></clipPath><clipPath id="9db2bf783f"><path d="M 200.53125 220.636719 L 306.636719 114.527344 L 395.757812 203.644531 L 289.648438 309.753906 Z M 200.53125 220.636719 " clip-rule="nonzero"/></clipPath><clipPath id="78d3908d02"><path d="M 289.648438 309.753906 C 266.269531 286.375 254.699219 252.226562 257.878906 215.980469 C 261.058594 179.738281 278.847656 143.011719 306.722656 115.136719 L 395.492188 203.90625 Z M 289.648438 309.753906 " clip-rule="nonzero"/></clipPath><clipPath id="5d1721b39f"><path d="M 0 0.0390625 L 138.601562 0.0390625 L 138.601562 194.917969 L 0 194.917969 Z M 0 0.0390625 " clip-rule="nonzero"/></clipPath><clipPath id="a3f8af0ab3"><path d="M -56.46875 105.636719 L 49.636719 -0.472656 L 138.757812 88.644531 L 32.648438 194.753906 Z M -56.46875 105.636719 " clip-rule="nonzero"/></clipPath><clipPath id="9bcf519225"><path d="M 32.648438 194.753906 C 9.269531 171.375 -2.300781 137.226562 0.878906 100.980469 C 4.058594 64.738281 21.847656 28.011719 49.722656 0.136719 L 138.492188 88.90625 Z M 32.648438 194.753906 " clip-rule="nonzero"/></clipPath><clipPath id="9596650324"><rect x="0" width="139" y="0" height="195"/></clipPath><clipPath id="6672676736"><path d="M 188.335938 202.15625 L 241.605469 202.15625 L 241.605469 255.425781 L 188.335938 255.425781 Z M 188.335938 202.15625 " clip-rule="nonzero"/></clipPath><clipPath id="954c58ce65"><path d="M 214.96875 202.15625 C 200.261719 202.15625 188.335938 214.082031 188.335938 228.789062 C 188.335938 243.5 200.261719 255.425781 214.96875 255.425781 C 229.679688 255.425781 241.605469 243.5 241.605469 228.789062 C 241.605469 214.082031 229.679688 202.15625 214.96875 202.15625 Z M 214.96875 202.15625 " clip-rule="nonzero"/></clipPath><clipPath id="c65617e3de"><path d="M 0.335938 0.15625 L 53.605469 0.15625 L 53.605469 53.425781 L 0.335938 53.425781 Z M 0.335938 0.15625 " clip-rule="nonzero"/></clipPath><clipPath id="9d0710524b"><path d="M 26.96875 0.15625 C 12.261719 0.15625 0.335938 12.082031 0.335938 26.789062 C 0.335938 41.5 12.261719 53.425781 26.96875 53.425781 C 41.679688 53.425781 53.605469 41.5 53.605469 26.789062 C 53.605469 12.082031 41.679688 0.15625 26.96875 0.15625 Z M 26.96875 0.15625 " clip-rule="nonzero"/></clipPath><clipPath id="2fb5d135d4"><rect x="0" width="54" y="0" height="54"/></clipPath><clipPath id="ec57c986c1"><path d="M 188.335938 202.15625 L 241.402344 202.15625 L 241.402344 255.222656 L 188.335938 255.222656 Z M 188.335938 202.15625 " clip-rule="nonzero"/></clipPath><clipPath id="0b80d3b199"><path d="M 214.945312 202.15625 C 200.25 202.15625 188.335938 214.070312 188.335938 228.765625 C 188.335938 243.464844 200.25 255.378906 214.945312 255.378906 C 229.644531 255.378906 241.558594 243.464844 241.558594 228.765625 C 241.558594 214.070312 229.644531 202.15625 214.945312 202.15625 Z M 214.945312 202.15625 " clip-rule="nonzero"/></clipPath><clipPath id="f4b2241c97"><rect x="0" width="1181" y="0" height="478"/></clipPath></defs><g transform="matrix(1, 0, 0, 1, 40, 490)"><g clip-path="url(#f4b2241c97)"><g clip-path="url(#c969190ede)"><g clip-path="url(#a15eab528f)"><g transform="matrix(1, 0, 0, 1, 47, 47)"><g clip-path="url(#6db47ac430)"><g clip-path="url(#2d095dd989)"><g clip-path="url(#4e0e0006d1)"><path fill="#ffffff" d="M 0.402344 0.171875 L 373.152344 0.171875 L 373.152344 372.917969 L 0.402344 372.917969 Z M 0.402344 0.171875 " fill-opacity="1" fill-rule="nonzero"/></g></g></g></g></g></g><g clip-path="url(#d974a24835)"><g clip-path="url(#9161b71cdf)"><path stroke-linecap="butt" transform="matrix(3.31663, 0, 0, 3.31663, 47.403291, 47.170267)" fill="none" stroke-linejoin="miter" d="M 56.187921 0.000484971 C 25.155853 0.000484971 -0.000285492 25.155446 -0.000285492 56.187514 C -0.000285492 87.219582 25.155853 112.374543 56.187921 112.374543 C 87.218812 112.374543 112.37495 87.219582 112.37495 56.187514 C 112.37495 25.155446 87.218812 0.000484971 56.187921 0.000484971 Z M 56.187921 0.000484971 " stroke="#001029" stroke-width="6.783995" stroke-opacity="1" stroke-miterlimit="4"/></g></g><path stroke-linecap="butt" transform="matrix(3.31663, 0, 0, 3.31663, 47.403291, 222.157086)" fill="none" stroke-linejoin="miter" d="M -0.000285492 1.999613 L 46.272217 1.999613 " stroke="#001029" stroke-width="4" stroke-opacity="1" stroke-miterlimit="4"/><g clip-path="url(#6e45f7eaf1)"><g clip-path="url(#65ed916a4b)"><g clip-path="url(#796eac01ee)"><g transform="matrix(1, 0, 0, 1, 211, 42)"><g clip-path="url(#e1206db879)"><g clip-path="url(#9ba7f6b78a)"><g clip-path="url(#c708040ed5)"><g clip-path="url(#f84d4a933c)"><path fill="#ffffff" d="M 430.449219 252.105469 L 199.164062 435.246094 L 0.285156 184.085938 L 231.570312 0.941406 Z M 430.449219 252.105469 " fill-opacity="1" fill-rule="nonzero"/></g></g></g></g></g></g></g></g><g clip-path="url(#ae735549c6)"><g clip-path="url(#9db2bf783f)"><g clip-path="url(#78d3908d02)"><g transform="matrix(1, 0, 0, 1, 257, 115)"><g clip-path="url(#9596650324)"><g clip-path="url(#5d1721b39f)"><g clip-path="url(#a3f8af0ab3)"><g clip-path="url(#9bcf519225)"><path fill="#ffffff" d="M -56.125 105.984375 L 49.636719 0.222656 L 138.410156 88.992188 L 32.648438 194.753906 Z M -56.125 105.984375 " fill-opacity="1" fill-rule="nonzero"/></g></g></g></g></g></g></g></g><path stroke-linecap="butt" transform="matrix(3.305085, -0.276489, 0.276489, 3.305085, 214.692862, 225.483747)" fill="none" stroke-linejoin="miter" d="M -0.000186334 1.000054 L 54.198944 1.000384 " stroke="#001029" stroke-width="2" stroke-opacity="1" stroke-miterlimit="4"/><path stroke-linecap="round" transform="matrix(3.305085, -0.276489, 0.276489, 3.305085, 214.692862, 225.483747)" fill-opacity="1" fill="#001029" fill-rule="nonzero" stroke-linejoin="round" d="M 60.69816 1.000411 C 60.697826 2.657394 59.355162 3.999981 57.698179 3.999646 C 56.041098 4.000485 54.698609 2.656647 54.698944 0.999664 C 54.698105 -0.657417 56.041942 -1.999905 57.698926 -1.999571 C 59.354833 -2.000508 60.698495 -0.656572 60.69816 1.000411 " stroke="#001029" stroke-width="2" stroke-opacity="1" stroke-miterlimit="4"/><g clip-path="url(#6672676736)"><g clip-path="url(#954c58ce65)"><g transform="matrix(1, 0, 0, 1, 188, 202)"><g clip-path="url(#2fb5d135d4)"><g clip-path="url(#c65617e3de)"><g clip-path="url(#9d0710524b)"><path fill="#001029" d="M 0.335938 0.15625 L 53.605469 0.15625 L 53.605469 53.425781 L 0.335938 53.425781 Z M 0.335938 0.15625 " fill-opacity="1" fill-rule="nonzero"/></g></g></g></g></g></g><g clip-path="url(#ec57c986c1)"><g clip-path="url(#0b80d3b199)"><path stroke-linecap="butt" transform="matrix(3.31663, 0, 0, 3.31663, 188.335301, 202.156172)" fill="none" stroke-linejoin="miter" d="M 8.023208 0.0000236438 C 3.592412 0.0000236438 0.000191947 3.592243 0.000191947 8.02304 C 0.000191947 12.455014 3.592412 16.047234 8.023208 16.047234 C 12.455183 16.047234 16.047402 12.455014 16.047402 8.02304 C 16.047402 3.592243 12.455183 0.0000236438 8.023208 0.0000236438 Z M 8.023208 0.0000236438 " stroke="#001029" stroke-width="1.809065" stroke-opacity="1" stroke-miterlimit="4"/></g></g><path stroke-linecap="butt" transform="matrix(3.16927, 0.977628, -0.977628, 3.16927, 221.110166, 226.734548)" fill="none" stroke-linejoin="miter" d="M -0.0000519628 0.999551 L 52.96363 1.00033 " stroke="#001029" stroke-width="2" stroke-opacity="1" stroke-miterlimit="4"/><path stroke-linecap="round" transform="matrix(3.16927, 0.977628, -0.977628, 3.16927, 221.110166, 226.734548)" fill-opacity="1" fill="#001029" fill-rule="nonzero" stroke-linejoin="round" d="M 59.463737 0.999344 C 59.463617 2.657146 58.120146 3.99967 56.463817 4.000328 C 54.806014 4.000208 53.463491 2.656737 53.463958 1.00006 C 53.463299 -0.656269 54.806423 -1.999918 56.4631 -1.999451 C 58.120555 -2.000457 59.463079 -0.656986 59.463737 0.999344 " stroke="#001029" stroke-width="2" stroke-opacity="1" stroke-miterlimit="4"/><path stroke-linecap="butt" transform="matrix(2.685036, 1.94695, -1.94695, 2.685036, 220.330519, 227.853865)" fill="none" stroke-linejoin="miter" d="M -0.000156029 1.000173 L 52.95205 0.999602 " stroke="#001029" stroke-width="2" stroke-opacity="1" stroke-miterlimit="4"/><path stroke-linecap="round" transform="matrix(2.685036, 1.94695, -1.94695, 2.685036, 220.330519, 227.853865)" fill-opacity="1" fill="#001029" fill-rule="nonzero" stroke-linejoin="round" d="M 59.452336 0.999796 C 59.452242 2.656906 58.108944 4.000471 56.451834 4.000378 C 54.794723 4.000284 53.451158 2.656986 53.451252 0.999876 C 53.451346 -0.657235 54.795335 -1.999846 56.451754 -2.000706 C 58.108865 -2.000612 59.451476 -0.656623 59.452336 0.999796 " stroke="#001029" stroke-width="2" stroke-opacity="1" stroke-miterlimit="4"/><path stroke-linecap="butt" transform="matrix(3.084674, -1.218531, 1.218531, 3.084674, 203.908127, 224.746578)" fill="none" stroke-linejoin="miter" d="M -0.000551363 1.000035 L 55.904495 1.000347 " stroke="#001029" stroke-width="2" stroke-opacity="1" stroke-miterlimit="4"/><path stroke-linecap="round" transform="matrix(3.084674, -1.218531, 1.218531, 3.084674, 203.908127, 224.746578)" fill-opacity="1" fill="#001029" fill-rule="nonzero" stroke-linejoin="round" d="M 62.404765 0.999993 C 62.405098 2.656499 61.061428 3.999897 59.404922 4.00023 C 57.748416 4.000563 56.405018 2.656892 56.404685 1.000386 C 56.404785 -0.657215 57.748022 -1.999518 59.404528 -1.999851 C 61.06213 -1.999751 62.404432 -0.656513 62.404765 0.999993 " stroke="#001029" stroke-width="2" stroke-opacity="1" stroke-miterlimit="4"/><g fill="#001029" fill-opacity="1"><g transform="translate(596.380148, 246.523641)"><g><path d="M 68.28125 -123.8125 C 79.238281 -123.8125 88.753906 -121.984375 96.828125 -118.328125 C 104.910156 -114.671875 111.132812 -109.484375 115.5 -102.765625 C 119.863281 -96.046875 122.046875 -88.085938 122.046875 -78.890625 C 122.046875 -69.804688 119.863281 -61.875 115.5 -55.09375 C 111.132812 -48.3125 104.910156 -43.125 96.828125 -39.53125 C 88.753906 -35.9375 79.238281 -34.140625 68.28125 -34.140625 L 43.328125 -34.140625 L 43.328125 0 L 14.6875 0 L 14.6875 -123.8125 Z M 66.6875 -57.484375 C 75.289062 -57.484375 81.832031 -59.335938 86.3125 -63.046875 C 90.789062 -66.765625 93.03125 -72.046875 93.03125 -78.890625 C 93.03125 -85.847656 90.789062 -91.179688 86.3125 -94.890625 C 81.832031 -98.609375 75.289062 -100.46875 66.6875 -100.46875 L 43.328125 -100.46875 L 43.328125 -57.484375 Z M 66.6875 -57.484375 "/></g></g></g><g fill="#001029" fill-opacity="1"><g transform="translate(725.848491, 246.523641)"><g/></g></g><g fill="#001029" fill-opacity="1"><g transform="translate(775.902492, 246.523641)"><g><path d="M 93.5625 0 L 69.6875 -34.484375 L 43.328125 -34.484375 L 43.328125 0 L 14.6875 0 L 14.6875 -123.8125 L 68.28125 -123.8125 C 79.238281 -123.8125 88.753906 -121.984375 96.828125 -118.328125 C 104.910156 -114.671875 111.132812 -109.484375 115.5 -102.765625 C 119.863281 -96.046875 122.046875 -88.085938 122.046875 -78.890625 C 122.046875 -69.691406 119.832031 -61.757812 115.40625 -55.09375 C 110.988281 -48.4375 104.710938 -43.335938 96.578125 -39.796875 L 124.34375 0 Z M 93.03125 -78.890625 C 93.03125 -85.847656 90.789062 -91.179688 86.3125 -94.890625 C 81.832031 -98.609375 75.289062 -100.46875 66.6875 -100.46875 L 43.328125 -100.46875 L 43.328125 -57.3125 L 66.6875 -57.3125 C 75.289062 -57.3125 81.832031 -59.195312 86.3125 -62.96875 C 90.789062 -66.738281 93.03125 -72.046875 93.03125 -78.890625 Z M 93.03125 -78.890625 "/></g></g></g><g fill="#001029" fill-opacity="1"><g transform="translate(905.901457, 246.523641)"><g/></g></g><g fill="#001029" fill-opacity="1"><g transform="translate(955.955458, 246.523641)"><g><path d="M 14.6875 -123.8125 L 43.328125 -123.8125 L 43.328125 0 L 14.6875 0 Z M 14.6875 -123.8125 "/></g></g></g><g fill="#001029" fill-opacity="1"><g transform="translate(1013.96859, 246.523641)"><g/></g></g><g fill="#001029" fill-opacity="1"><g transform="translate(1064.022591, 246.523641)"><g><path d="M 55.359375 2.125 C 45.578125 2.125 36.113281 0.796875 26.96875 -1.859375 C 17.832031 -4.515625 10.492188 -7.960938 4.953125 -12.203125 L 14.6875 -33.78125 C 19.988281 -29.894531 26.296875 -26.769531 33.609375 -24.40625 C 40.921875 -22.050781 48.226562 -20.875 55.53125 -20.875 C 63.675781 -20.875 69.691406 -22.082031 73.578125 -24.5 C 77.472656 -26.914062 79.421875 -30.128906 79.421875 -34.140625 C 79.421875 -37.085938 78.269531 -39.53125 75.96875 -41.46875 C 73.664062 -43.414062 70.71875 -44.976562 67.125 -46.15625 C 63.53125 -47.34375 58.664062 -48.644531 52.53125 -50.0625 C 43.09375 -52.300781 35.367188 -54.539062 29.359375 -56.78125 C 23.347656 -59.019531 18.1875 -62.613281 13.875 -67.5625 C 9.570312 -72.519531 7.421875 -79.125 7.421875 -87.375 C 7.421875 -94.570312 9.367188 -101.085938 13.265625 -106.921875 C 17.160156 -112.753906 23.023438 -117.378906 30.859375 -120.796875 C 38.703125 -124.222656 48.285156 -125.9375 59.609375 -125.9375 C 67.503906 -125.9375 75.222656 -124.992188 82.765625 -123.109375 C 90.316406 -121.222656 96.925781 -118.507812 102.59375 -114.96875 L 93.75 -93.21875 C 82.3125 -99.695312 70.875 -102.9375 59.4375 -102.9375 C 51.414062 -102.9375 45.488281 -101.640625 41.65625 -99.046875 C 37.820312 -96.453125 35.90625 -93.035156 35.90625 -88.796875 C 35.90625 -84.546875 38.113281 -81.390625 42.53125 -79.328125 C 46.957031 -77.265625 53.710938 -75.226562 62.796875 -73.21875 C 72.222656 -70.976562 79.941406 -68.738281 85.953125 -66.5 C 91.972656 -64.257812 97.132812 -60.722656 101.4375 -55.890625 C 105.738281 -51.054688 107.890625 -44.515625 107.890625 -36.265625 C 107.890625 -29.179688 105.914062 -22.722656 101.96875 -16.890625 C 98.019531 -11.054688 92.09375 -6.425781 84.1875 -3 C 76.289062 0.414062 66.679688 2.125 55.359375 2.125 Z M 55.359375 2.125 "/></g></g></g><g fill="#000000" fill-opacity="1"><g transform="translate(605.589574, 354.425033)"><g><path d="M 21.71875 0.421875 C 18.039062 0.421875 14.515625 -0.164062 11.140625 -1.34375 C 7.765625 -2.519531 5.160156 -4.078125 3.328125 -6.015625 L 5.375 -10.046875 C 7.164062 -8.253906 9.546875 -6.800781 12.515625 -5.6875 C 15.492188 -4.582031 18.5625 -4.03125 21.71875 -4.03125 C 26.15625 -4.03125 29.476562 -4.84375 31.6875 -6.46875 C 33.90625 -8.101562 35.015625 -10.21875 35.015625 -12.8125 C 35.015625 -14.789062 34.410156 -16.367188 33.203125 -17.546875 C 32.003906 -18.722656 30.53125 -19.628906 28.78125 -20.265625 C 27.039062 -20.898438 24.617188 -21.597656 21.515625 -22.359375 C 17.785156 -23.296875 14.8125 -24.203125 12.59375 -25.078125 C 10.375 -25.953125 8.472656 -27.285156 6.890625 -29.078125 C 5.316406 -30.867188 4.53125 -33.296875 4.53125 -36.359375 C 4.53125 -38.859375 5.1875 -41.132812 6.5 -43.1875 C 7.820312 -45.238281 9.851562 -46.878906 12.59375 -48.109375 C 15.332031 -49.335938 18.726562 -49.953125 22.78125 -49.953125 C 25.613281 -49.953125 28.382812 -49.5625 31.09375 -48.78125 C 33.800781 -48 36.148438 -46.925781 38.140625 -45.5625 L 36.359375 -41.390625 C 34.285156 -42.753906 32.066406 -43.78125 29.703125 -44.46875 C 27.347656 -45.15625 25.039062 -45.5 22.78125 -45.5 C 18.4375 -45.5 15.164062 -44.660156 12.96875 -42.984375 C 10.78125 -41.304688 9.6875 -39.144531 9.6875 -36.5 C 9.6875 -34.519531 10.285156 -32.925781 11.484375 -31.71875 C 12.691406 -30.519531 14.203125 -29.601562 16.015625 -28.96875 C 17.835938 -28.332031 20.28125 -27.640625 23.34375 -26.890625 C 26.976562 -25.992188 29.914062 -25.109375 32.15625 -24.234375 C 34.394531 -23.359375 36.289062 -22.035156 37.84375 -20.265625 C 39.40625 -18.492188 40.1875 -16.101562 40.1875 -13.09375 C 40.1875 -10.59375 39.515625 -8.316406 38.171875 -6.265625 C 36.828125 -4.210938 34.765625 -2.582031 31.984375 -1.375 C 29.203125 -0.175781 25.78125 0.421875 21.71875 0.421875 Z M 21.71875 0.421875 "/></g></g></g><g fill="#000000" fill-opacity="1"><g transform="translate(654.399839, 354.425033)"><g/></g></g><g fill="#000000" fill-opacity="1"><g transform="translate(678.239683, 354.425033)"><g><path d="M 8.0625 -49.53125 L 13.296875 -49.53125 L 13.296875 0 L 8.0625 0 Z M 8.0625 -49.53125 "/></g></g></g><g fill="#000000" fill-opacity="1"><g transform="translate(704.909007, 354.425033)"><g/></g></g><g fill="#000000" fill-opacity="1"><g transform="translate(728.74885, 354.425033)"><g><path d="M 21.71875 0.421875 C 18.039062 0.421875 14.515625 -0.164062 11.140625 -1.34375 C 7.765625 -2.519531 5.160156 -4.078125 3.328125 -6.015625 L 5.375 -10.046875 C 7.164062 -8.253906 9.546875 -6.800781 12.515625 -5.6875 C 15.492188 -4.582031 18.5625 -4.03125 21.71875 -4.03125 C 26.15625 -4.03125 29.476562 -4.84375 31.6875 -6.46875 C 33.90625 -8.101562 35.015625 -10.21875 35.015625 -12.8125 C 35.015625 -14.789062 34.410156 -16.367188 33.203125 -17.546875 C 32.003906 -18.722656 30.53125 -19.628906 28.78125 -20.265625 C 27.039062 -20.898438 24.617188 -21.597656 21.515625 -22.359375 C 17.785156 -23.296875 14.8125 -24.203125 12.59375 -25.078125 C 10.375 -25.953125 8.472656 -27.285156 6.890625 -29.078125 C 5.316406 -30.867188 4.53125 -33.296875 4.53125 -36.359375 C 4.53125 -38.859375 5.1875 -41.132812 6.5 -43.1875 C 7.820312 -45.238281 9.851562 -46.878906 12.59375 -48.109375 C 15.332031 -49.335938 18.726562 -49.953125 22.78125 -49.953125 C 25.613281 -49.953125 28.382812 -49.5625 31.09375 -48.78125 C 33.800781 -48 36.148438 -46.925781 38.140625 -45.5625 L 36.359375 -41.390625 C 34.285156 -42.753906 32.066406 -43.78125 29.703125 -44.46875 C 27.347656 -45.15625 25.039062 -45.5 22.78125 -45.5 C 18.4375 -45.5 15.164062 -44.660156 12.96875 -42.984375 C 10.78125 -41.304688 9.6875 -39.144531 9.6875 -36.5 C 9.6875 -34.519531 10.285156 -32.925781 11.484375 -31.71875 C 12.691406 -30.519531 14.203125 -29.601562 16.015625 -28.96875 C 17.835938 -28.332031 20.28125 -27.640625 23.34375 -26.890625 C 26.976562 -25.992188 29.914062 -25.109375 32.15625 -24.234375 C 34.394531 -23.359375 36.289062 -22.035156 37.84375 -20.265625 C 39.40625 -18.492188 40.1875 -16.101562 40.1875 -13.09375 C 40.1875 -10.59375 39.515625 -8.316406 38.171875 -6.265625 C 36.828125 -4.210938 34.765625 -2.582031 31.984375 -1.375 C 29.203125 -0.175781 25.78125 0.421875 21.71875 0.421875 Z M 21.71875 0.421875 "/></g></g></g><g fill="#000000" fill-opacity="1"><g transform="translate(777.559115, 354.425033)"><g/></g></g><g fill="#000000" fill-opacity="1"><g transform="translate(801.398959, 354.425033)"><g><path d="M 17.6875 -45 L 0.28125 -45 L 0.28125 -49.53125 L 40.328125 -49.53125 L 40.328125 -45 L 22.921875 -45 L 22.921875 0 L 17.6875 0 Z M 17.6875 -45 "/></g></g></g><g fill="#000000" fill-opacity="1"><g transform="translate(847.308945, 354.425033)"><g/></g></g><g fill="#000000" fill-opacity="1"><g transform="translate(871.148789, 354.425033)"><g><path d="M 43.09375 -4.53125 L 43.09375 0 L 8.0625 0 L 8.0625 -49.53125 L 42.03125 -49.53125 L 42.03125 -45 L 13.296875 -45 L 13.296875 -27.375 L 38.90625 -27.375 L 38.90625 -22.921875 L 13.296875 -22.921875 L 13.296875 -4.53125 Z M 43.09375 -4.53125 "/></g></g></g><g fill="#000000" fill-opacity="1"><g transform="translate(923.778876, 354.425033)"><g/></g></g><g fill="#000000" fill-opacity="1"><g transform="translate(947.61872, 354.425033)"><g><path d="M 59.5 -49.53125 L 59.5 0 L 54.484375 0 L 54.484375 -39.625 L 35.015625 -6.296875 L 32.546875 -6.296875 L 13.09375 -39.40625 L 13.09375 0 L 8.0625 0 L 8.0625 -49.53125 L 12.375 -49.53125 L 33.890625 -12.8125 L 55.1875 -49.53125 Z M 59.5 -49.53125 "/></g></g></g><g fill="#000000" fill-opacity="1"><g transform="translate(1020.479812, 354.425033)"><g/></g></g><g fill="#000000" fill-opacity="1"><g transform="translate(1044.319655, 354.425033)"><g><path d="M 39.125 -13.234375 L 11.53125 -13.234375 L 5.59375 0 L 0.140625 0 L 22.78125 -49.53125 L 27.953125 -49.53125 L 50.59375 0 L 45.0625 0 Z M 37.21875 -17.46875 L 25.328125 -44.078125 L 13.4375 -17.46875 Z M 37.21875 -17.46875 "/></g></g></g><g fill="#000000" fill-opacity="1"><g transform="translate(1100.345167, 354.425033)"><g/></g></g><g fill="#000000" fill-opacity="1"><g transform="translate(1124.185011, 354.425033)"><g><path d="M 21.71875 0.421875 C 18.039062 0.421875 14.515625 -0.164062 11.140625 -1.34375 C 7.765625 -2.519531 5.160156 -4.078125 3.328125 -6.015625 L 5.375 -10.046875 C 7.164062 -8.253906 9.546875 -6.800781 12.515625 -5.6875 C 15.492188 -4.582031 18.5625 -4.03125 21.71875 -4.03125 C 26.15625 -4.03125 29.476562 -4.84375 31.6875 -6.46875 C 33.90625 -8.101562 35.015625 -10.21875 35.015625 -12.8125 C 35.015625 -14.789062 34.410156 -16.367188 33.203125 -17.546875 C 32.003906 -18.722656 30.53125 -19.628906 28.78125 -20.265625 C 27.039062 -20.898438 24.617188 -21.597656 21.515625 -22.359375 C 17.785156 -23.296875 14.8125 -24.203125 12.59375 -25.078125 C 10.375 -25.953125 8.472656 -27.285156 6.890625 -29.078125 C 5.316406 -30.867188 4.53125 -33.296875 4.53125 -36.359375 C 4.53125 -38.859375 5.1875 -41.132812 6.5 -43.1875 C 7.820312 -45.238281 9.851562 -46.878906 12.59375 -48.109375 C 15.332031 -49.335938 18.726562 -49.953125 22.78125 -49.953125 C 25.613281 -49.953125 28.382812 -49.5625 31.09375 -48.78125 C 33.800781 -48 36.148438 -46.925781 38.140625 -45.5625 L 36.359375 -41.390625 C 34.285156 -42.753906 32.066406 -43.78125 29.703125 -44.46875 C 27.347656 -45.15625 25.039062 -45.5 22.78125 -45.5 C 18.4375 -45.5 15.164062 -44.660156 12.96875 -42.984375 C 10.78125 -41.304688 9.6875 -39.144531 9.6875 -36.5 C 9.6875 -34.519531 10.285156 -32.925781 11.484375 -31.71875 C 12.691406 -30.519531 14.203125 -29.601562 16.015625 -28.96875 C 17.835938 -28.332031 20.28125 -27.640625 23.34375 -26.890625 C 26.976562 -25.992188 29.914062 -25.109375 32.15625 -24.234375 C 34.394531 -23.359375 36.289062 -22.035156 37.84375 -20.265625 C 39.40625 -18.492188 40.1875 -16.101562 40.1875 -13.09375 C 40.1875 -10.59375 39.515625 -8.316406 38.171875 -6.265625 C 36.828125 -4.210938 34.765625 -2.582031 31.984375 -1.375 C 29.203125 -0.175781 25.78125 0.421875 21.71875 0.421875 Z M 21.71875 0.421875 "/></g></g></g></g></g></svg>